<svg xmlns="http://www.w3.org/2000/svg" viewBox="0 0 64 64">
  <circle cx="32" cy="32" r="30" fill="#1a1a2e"/>
  <circle cx="32" cy="32" r="28" fill="none" stroke="#e94560" stroke-width="1.5"/>
  <circle cx="32" cy="32" r="12" fill="none" stroke="#fff" stroke-width="1.5"/>
  <circle cx="32" cy="32" r="4" fill="#fff"/>
  <path d="M32 2 L34 8 L40 6 L36 12 L42 14 L35 16 L36 22 L32 18 L28 22 L29 16 L22 14 L28 12 L24 6 L30 8Z" fill="#e94560"/>
  <path d="M32 62 L34 56 L40 58 L36 52 L42 50 L35 48 L36 42 L32 46 L28 42 L29 48 L22 50 L28 52 L24 58 L30 56Z" fill="#e94560"/>
  <path d="M2 32 L8 30 L6 24 L12 28 L14 22 L16 29 L22 28 L18 32 L22 36 L16 35 L14 42 L12 36 L6 40 L8 34Z" fill="#e94560"/>
  <path d="M62 32 L56 34 L58 40 L52 36 L50 42 L48 35 L42 36 L46 32 L42 28 L48 29 L50 22 L52 28 L58 24 L56 30Z" fill="#e94560"/>
  <circle cx="32" cy="32" r="16" fill="none" stroke="#e94560" stroke-width="1" stroke-dasharray="4 4" opacity="0.5"/>
</svg>
